<svg width="19" height="19" viewBox="0 0 19 19" fill="none" xmlns="http://www.w3.org/2000/svg">
<g clip-path="url(#clip0_102_15)">
<path d="M9.49582 1.52588e-05C5.2975 1.52588e-05 1.87988 3.41763 1.87988 7.61595C1.87988 8.09394 1.9237 8.57591 2.01531 9.04593C2.0193 9.07381 2.03523 9.15746 2.06709 9.30086C2.18261 9.81469 2.35389 10.3206 2.57695 10.8025C3.39749 12.7344 5.2019 15.7019 9.16123 18.8805C9.26081 18.9602 9.38031 19 9.4998 19C9.6193 19 9.7388 18.9602 9.83838 18.8805C13.7937 15.7019 15.6021 12.7344 16.4227 10.8025C16.6457 10.3206 16.817 9.81868 16.9325 9.30086C16.9644 9.15746 16.9803 9.07381 16.9843 9.04593C17.0719 8.57591 17.1197 8.09394 17.1197 7.61595C17.1118 3.41763 13.6941 1.52588e-05 9.49582 1.52588e-05ZM15.9168 8.85872C15.9168 8.86668 15.9128 8.87465 15.9128 8.88262C15.9088 8.90253 15.8969 8.96228 15.877 9.0539C15.877 9.05788 15.877 9.05788 15.877 9.06186C15.7774 9.50799 15.63 9.94216 15.4348 10.3604C15.4308 10.3644 15.4308 10.3723 15.4269 10.3763C14.682 12.1409 13.0489 14.8336 9.49582 17.7692C5.94278 14.8336 4.30965 12.1409 3.56479 10.3763C3.56081 10.3723 3.56081 10.3644 3.55682 10.3604C3.36563 9.94614 3.21825 9.50799 3.11468 9.06186C3.11468 9.05788 3.11468 9.05788 3.11468 9.0539C3.09078 8.96228 3.08282 8.90253 3.07884 8.88262C3.07884 8.87465 3.07485 8.86669 3.07485 8.85474C2.99519 8.44446 2.95536 8.03021 2.95536 7.61197C2.95536 4.00714 5.891 1.0715 9.49582 1.0715C13.1006 1.0715 16.0363 4.00714 16.0363 7.61197C16.0363 8.03419 15.9965 8.45243 15.9168 8.85872Z" fill="black"/>
<path d="M9.4958 2.86398C6.83102 2.86398 4.66016 5.03484 4.66016 7.69962C4.66016 10.3644 6.83102 12.5353 9.4958 12.5353C12.1606 12.5353 14.3314 10.3644 14.3314 7.69962C14.3314 5.03484 12.1606 2.86398 9.4958 2.86398ZM9.4958 11.4598C7.42053 11.4598 5.73563 9.7709 5.73563 7.69962C5.73563 5.62834 7.42452 3.93946 9.4958 3.93946C11.5671 3.93946 13.256 5.62834 13.256 7.69962C13.256 9.7709 11.5711 11.4598 9.4958 11.4598Z" fill="black"/>
</g>
<defs>
<clipPath id="clip0_102_15">
<rect width="19" height="19" fill="white"/>
</clipPath>
</defs>
</svg>
