<svg width="20" height="26" viewBox="0 0 20 26" fill="none" xmlns="http://www.w3.org/2000/svg">
<path d="M13.6186 5.06287H2.98022V4.26287H13.6186V5.06287Z" fill="#161616"/>
<path d="M13.6186 9.81079H2.98022V9.01079H13.6186V9.81079Z" fill="#161616"/>
<path d="M2.98022 14.5591H13.6186V13.7591H2.98022V14.5591Z" fill="#161616"/>
<path d="M11.4506 6.7771H2.98022V5.9771H11.4506V6.7771Z" fill="#161616"/>
<path d="M2.98022 11.525H11.4506V10.725H2.98022V11.525Z" fill="#161616"/>
<path d="M11.4506 16.2733H2.98022V15.4733H11.4506V16.2733Z" fill="#161616"/>
<path d="M17.5317 19.8457L16.966 19.28L14.5515 21.6945L13.1957 20.3388L12.63 20.9045L14.5515 22.8259L17.5317 19.8457Z" fill="#161616"/>
<path fill-rule="evenodd" clip-rule="evenodd" d="M3.42774 22.6002H10.7593C11.4346 24.327 13.1149 25.5501 15.0809 25.5501C17.6427 25.5501 19.7194 23.4734 19.7194 20.9116C19.7194 18.7565 18.2498 16.9448 16.2581 16.4238V3.44983C16.2581 1.79298 14.9149 0.449829 13.2581 0.449829H3.42773C1.77088 0.449829 0.427734 1.79298 0.427734 3.44983V19.6002C0.427734 21.257 1.77088 22.6002 3.42774 22.6002ZM13.2581 1.24983H3.42773C2.21271 1.24983 1.22773 2.2348 1.22773 3.44983V19.6002C1.22773 20.8152 2.21271 21.8002 3.42774 21.8002H10.5274C10.4716 21.5126 10.4424 21.2155 10.4424 20.9116C10.4424 18.3498 12.5191 16.2731 15.0809 16.2731C15.2079 16.2731 15.3337 16.2782 15.4581 16.2882V3.44983C15.4581 2.2348 14.4731 1.24983 13.2581 1.24983ZM15.0809 24.7501C17.2008 24.7501 18.9194 23.0315 18.9194 20.9116C18.9194 18.7916 17.2008 17.0731 15.0809 17.0731C12.9609 17.0731 11.2424 18.7916 11.2424 20.9116C11.2424 23.0315 12.9609 24.7501 15.0809 24.7501Z" fill="#161616"/>
</svg>
