<svg width="143" height="53" viewBox="0 0 143 53" fill="none" xmlns="http://www.w3.org/2000/svg">
<path fill-rule="evenodd" clip-rule="evenodd" d="M45.2583 31.945V15.5303L55.3692 25.2353C55.971 25.8344 56.5729 26.4335 57.0543 27.1524V16.2492H59.4617V32.6639L49.2304 22.839C48.6286 22.24 48.1471 21.7607 47.6657 21.0418V32.0648H45.2583V31.945ZM130.238 31.945L135.414 23.6777L130.84 16.1294H133.488L135.775 19.9635C136.136 20.4427 136.377 21.0418 136.617 21.5211C136.858 21.0418 137.219 20.4427 137.46 19.9635L139.867 16.1294H142.515L137.821 23.6777L142.756 31.945H139.867L137.219 27.5118C136.978 27.0326 136.617 26.4335 136.377 25.9542C136.136 26.4335 135.775 27.0326 135.534 27.5118L132.766 32.0648H130.238V31.945ZM116.877 31.945V16.2492H125.784V18.4059H119.525V22.3598H125.784V24.6363H119.525V29.6685H125.784V31.945H116.877ZM105.322 32.6639L98.2201 16.2492H100.868L104.479 24.6363C104.84 25.475 105.081 26.3137 105.322 27.1524C105.562 26.3137 105.803 25.475 106.164 24.6363L109.655 16.2492H112.303L105.322 32.6639ZM84.2574 29.6685H86.424C88.9518 29.6685 90.998 29.3091 91.9609 26.6731C92.2017 25.9542 92.4424 24.9957 92.4424 24.0372C92.4424 23.0787 92.322 22.1201 91.9609 21.4012C90.8776 18.6455 88.711 18.4059 86.0629 18.4059H84.2574V29.6685ZM81.6093 31.945V16.2492H85.1C88.9518 16.2492 92.6832 16.369 94.3683 20.4427C94.8498 21.5211 95.0905 22.839 95.0905 24.157C95.0905 25.5948 94.8498 26.7929 94.3683 27.8713C92.6832 31.7054 89.4332 32.0648 85.8222 32.0648H81.6093V31.945ZM66.443 31.945V16.2492H75.3502V18.4059H69.0911V22.3598H75.3502V24.6363H69.0911V29.6685H75.3502V31.945H66.443Z" fill="black"/>
<path fill-rule="evenodd" clip-rule="evenodd" d="M30.8141 52.793H28.8882V41.4105C29.129 41.1709 29.3697 41.0511 29.4901 40.8115V25.2354C29.7308 24.7562 29.9715 24.2769 30.0919 23.7976V0.912842H30.6937V52.793H30.8141ZM26.2401 30.6271C26.4809 30.2677 26.7216 30.028 26.842 29.6686V13.134C27.0827 12.535 27.3234 11.9359 27.4438 11.3368V52.9128H25.5179V43.9267C25.7587 43.8068 25.9994 43.687 26.1198 43.4474V30.6271H26.2401ZM23.1106 34.4612C23.3513 34.2216 23.5921 33.982 23.7124 33.7423V20.323C23.9532 19.8437 24.1939 19.4843 24.3143 19.005V52.793H22.3884V45.6041C22.6291 45.4843 22.8698 45.3645 22.9902 45.2446V34.4612H23.1106ZM19.8607 37.5764C20.1014 37.3368 20.3421 37.217 20.4625 36.9774V25.9543C20.7032 25.5949 20.944 25.2354 21.0643 24.876V52.793H19.2588V47.0419C19.4996 46.9221 19.7403 46.9221 19.8607 46.8022V37.5764ZM16.7311 40.0926C16.9718 39.9727 17.2126 39.7331 17.3329 39.6133V30.6271C17.5737 30.3875 17.8144 30.028 17.9348 29.7884V52.9128H16.0089V48.3598C16.2496 48.24 16.4904 48.24 16.6107 48.1202V40.0926H16.7311ZM13.4812 42.2492C13.7219 42.1294 13.9626 42.0096 14.083 41.77V34.4612C14.3237 34.2216 14.5645 33.982 14.6848 33.7423V52.793H12.759V49.0787C12.9997 49.0787 13.2404 48.9589 13.3608 48.9589V42.2492H13.4812ZM10.2312 44.1663C10.472 44.0465 10.7127 43.9267 10.8331 43.8068V37.8161C11.0738 37.5764 11.3146 37.3368 11.4349 37.217C11.4349 42.4889 11.4349 47.641 11.4349 52.9128H9.62941V49.9174C9.87015 49.9174 10.1109 49.7976 10.2312 49.7976V44.1663ZM7.10169 45.7239C7.34243 45.6041 7.58316 45.4843 7.70353 45.3644V40.6916C7.94426 40.452 8.185 40.3322 8.30537 40.0926C8.30537 44.2861 8.30537 48.4797 8.30537 52.793H6.37948V50.2769C6.62022 50.2769 6.86095 50.2769 6.98132 50.1571V45.7239H7.10169ZM3.85176 47.1617C4.0925 47.0419 4.33323 47.0419 4.4536 46.9221V43.2078C4.69434 43.088 4.93507 42.8483 5.05544 42.7285C5.05544 46.0833 5.05544 49.4382 5.05544 52.793H3.24993V50.6363C3.49066 50.6363 3.7314 50.6363 3.85176 50.6363V47.1617ZM0.601838 48.3598C0.842573 48.24 1.08331 48.24 1.20368 48.1202V45.2446C1.44441 45.1248 1.68515 45.005 1.80551 44.8852C1.80551 47.5211 1.80551 50.1571 1.80551 52.793H0V50.7562H0.601838V48.3598Z" fill="black"/>
<path fill-rule="evenodd" clip-rule="evenodd" d="M50.4341 37.8165V39.0147C49.9526 38.5354 49.3508 38.2958 48.6286 38.2958C47.9064 38.2958 47.3046 38.5354 46.9434 39.0147C46.462 39.494 46.3416 40.093 46.3416 40.8119C46.3416 41.5308 46.5823 42.1299 47.0638 42.4894C47.5453 42.9686 48.0268 43.2083 48.749 43.2083C49.3508 43.2083 49.9526 42.9686 50.5545 42.4894V43.6875C49.9526 43.8073 49.3508 44.047 48.6286 44.047C47.786 44.047 46.9434 43.8073 46.3416 43.2083C45.6194 42.6092 45.2583 41.7705 45.2583 40.8119C45.2583 39.7336 45.6194 38.8949 46.3416 38.2958C46.9434 37.6967 47.6657 37.4571 48.6286 37.4571C49.3508 37.3373 49.9526 37.4571 50.4341 37.8165ZM56.934 38.2958C57.5358 37.6967 58.3784 37.3373 59.3413 37.3373C60.3043 37.3373 61.1468 37.6967 61.7487 38.2958C62.3505 38.8949 62.7116 39.7336 62.7116 40.6921C62.7116 41.6507 62.3505 42.4894 61.7487 43.0884C61.1468 43.6875 60.3043 44.047 59.3413 44.047C58.3784 44.047 57.5358 43.6875 56.934 43.0884C56.3321 42.4894 55.971 41.6507 55.971 40.6921C55.971 39.7336 56.3321 38.8949 56.934 38.2958ZM57.6562 42.3695C58.1376 42.8488 58.6191 43.0884 59.3413 43.0884C60.0635 43.0884 60.545 42.8488 61.0265 42.3695C61.5079 41.8903 61.7487 41.2912 61.7487 40.5723C61.7487 39.8534 61.5079 39.2543 61.0265 38.7751C60.545 38.2958 60.0635 38.0562 59.3413 38.0562C58.6191 38.0562 58.1376 38.2958 57.6562 38.7751C57.1747 39.2543 56.934 39.8534 56.934 40.5723C56.934 41.411 57.1747 42.0101 57.6562 42.3695ZM69.5726 43.9271H68.6096V37.0977L73.304 42.0101V37.5769H74.2669V44.4064L69.5726 39.494V43.9271ZM84.0167 38.4156L83.1741 38.8949C83.0537 38.7751 83.0537 38.6553 82.9334 38.5354C82.6926 38.4156 82.4519 38.2958 82.2112 38.2958C81.9704 38.2958 81.7297 38.4156 81.4889 38.5354C81.3686 38.6553 81.2482 38.8949 81.2482 39.1345C81.2482 39.494 81.489 39.7336 81.9704 39.9732L82.5723 40.2129C83.5352 40.5723 84.137 41.2912 84.137 42.1299C84.137 42.729 83.8963 43.2083 83.5352 43.5677C83.1741 43.9271 82.6926 44.1668 82.0908 44.1668C81.4889 44.1668 81.0075 43.9271 80.526 43.5677C80.1649 43.2083 80.0445 42.8488 79.9242 42.3695L80.8871 42.1299C80.8871 42.4894 81.0075 42.729 81.1279 42.9686C81.3686 43.2083 81.6093 43.3281 81.9704 43.3281C82.3315 43.3281 82.5723 43.2083 82.6926 43.0884C82.9334 42.8488 83.0537 42.6092 83.0537 42.2497C83.0537 42.0101 82.9334 41.7705 82.813 41.5308C82.6926 41.411 82.4519 41.2912 82.0908 41.1714L81.4889 40.9318C80.6464 40.5723 80.1649 39.9732 80.1649 39.2543C80.1649 38.7751 80.2853 38.4156 80.6464 38.0562C81.0075 37.6967 81.4889 37.5769 82.0908 37.5769C82.5723 37.5769 83.0537 37.6967 83.4148 38.0562C83.6556 37.9364 83.8963 38.176 84.0167 38.4156ZM90.0351 37.4571H90.998V41.2912C90.998 41.7705 91.1184 42.1299 91.2387 42.3695C91.3591 42.6092 91.4795 42.729 91.7202 42.8488C91.9609 42.9686 92.2017 43.0884 92.4424 43.0884C92.6831 43.0884 92.9239 42.9686 93.1646 42.8488C93.4053 42.729 93.5257 42.6092 93.6461 42.3695C93.7665 42.1299 93.8868 41.7705 93.8868 41.2912V37.4571H94.8498V41.6506C94.8498 42.3695 94.609 42.8488 94.2479 43.3281C93.7665 43.8073 93.1646 44.047 92.4424 44.047C91.7202 44.047 91.1184 43.8073 90.6369 43.3281C90.2758 42.8488 90.0351 42.3695 90.0351 41.6506V37.4571ZM100.989 37.4571H101.951V42.9686H103.877V43.9271H100.989V37.4571V37.4571ZM112.423 38.4156H110.979V43.9271H110.016V38.4156H108.572V37.4571H112.544V38.4156H112.423ZM117.84 37.4571H118.803V43.9271H117.84V37.4571ZM126.025 43.9271H125.062V37.0977L129.756 42.0101V37.5769H130.719V44.4064L126.025 39.494V43.9271ZM140.228 41.411V40.4525H142.876C142.876 41.5308 142.515 42.4894 141.913 43.0884C141.312 43.6875 140.589 43.9271 139.747 43.9271C138.904 43.9271 138.062 43.6875 137.58 43.0884C136.978 42.4894 136.617 41.6507 136.617 40.6921C136.617 40.2129 136.738 39.7336 136.858 39.3742C136.978 38.8949 137.219 38.6553 137.58 38.2958C137.821 38.0562 138.182 37.8165 138.664 37.5769C139.145 37.4571 139.506 37.3373 139.988 37.3373C140.589 37.3373 141.191 37.4571 141.673 37.6967C142.154 37.9364 142.515 38.2958 142.756 38.6553L141.913 39.2543C141.673 38.8949 141.432 38.6553 141.071 38.5354C140.71 38.2958 140.349 38.2958 139.867 38.2958C139.145 38.2958 138.664 38.5354 138.182 39.0147C137.941 39.2543 137.821 39.494 137.701 39.8534C137.58 40.2129 137.46 40.4525 137.46 40.8119C137.46 41.5308 137.701 42.1299 138.182 42.6092C138.543 43.0884 139.145 43.2083 139.747 43.2083C140.349 43.2083 140.83 42.9686 141.191 42.6092C141.552 42.2497 141.673 41.8903 141.793 41.5308H140.228V41.411Z" fill="black"/>
</svg>
