<svg width="18" height="18" viewBox="0 0 18 18" fill="none" xmlns="http://www.w3.org/2000/svg">
<g clip-path="url(#clip0_69_772)">
<path d="M8.99634 0C5.01899 0 1.78125 3.23774 1.78125 7.21509C1.78125 7.66792 1.82276 8.12453 1.90955 8.56981C1.91333 8.59623 1.92842 8.67547 1.95861 8.81132C2.06804 9.29811 2.23031 9.77736 2.44163 10.234C3.21899 12.0642 4.92842 14.8755 8.67936 17.8868C8.7737 17.9623 8.88691 18 9.00012 18C9.11333 18 9.22653 17.9623 9.32087 17.8868C13.068 14.8755 14.7812 12.0642 15.5586 10.234C15.7699 9.77736 15.9322 9.30189 16.0416 8.81132C16.0718 8.67547 16.0869 8.59623 16.0907 8.56981C16.1737 8.12453 16.219 7.66792 16.219 7.21509C16.2114 3.23774 12.9737 0 8.99634 0ZM15.0794 8.39245C15.0794 8.4 15.0756 8.40755 15.0756 8.41509C15.0718 8.43396 15.0605 8.49057 15.0416 8.57736C15.0416 8.58113 15.0416 8.58113 15.0416 8.5849C14.9473 9.00755 14.8077 9.41887 14.6228 9.81509C14.619 9.81887 14.619 9.82641 14.6152 9.83019C13.9096 11.5019 12.3624 14.0528 8.99634 16.834C5.63031 14.0528 4.08314 11.5019 3.37748 9.83019C3.3737 9.82641 3.3737 9.81887 3.36993 9.81509C3.1888 9.42264 3.04917 9.00755 2.95106 8.5849C2.95106 8.58113 2.95106 8.58113 2.95106 8.57736C2.92842 8.49057 2.92087 8.43396 2.9171 8.41509C2.9171 8.40755 2.91333 8.4 2.91333 8.38868C2.83785 8 2.80012 7.60755 2.80012 7.21132C2.80012 3.79623 5.58125 1.01509 8.99634 1.01509C12.4114 1.01509 15.1926 3.79623 15.1926 7.21132C15.1926 7.61132 15.1548 8.00755 15.0794 8.39245Z" fill="black"/>
<path d="M8.99618 2.71326C6.47165 2.71326 4.41504 4.76986 4.41504 7.29439C4.41504 9.81892 6.47165 11.8755 8.99618 11.8755C11.5207 11.8755 13.5773 9.81892 13.5773 7.29439C13.5773 4.76986 11.5207 2.71326 8.99618 2.71326ZM8.99618 10.8567C7.03014 10.8567 5.43391 9.25665 5.43391 7.29439C5.43391 5.33212 7.03391 3.73212 8.99618 3.73212C10.9584 3.73212 12.5584 5.33212 12.5584 7.29439C12.5584 9.25665 10.9622 10.8567 8.99618 10.8567Z" fill="black"/>
</g>
<defs>
<clipPath id="clip0_69_772">
<rect width="18" height="18" fill="white"/>
</clipPath>
</defs>
</svg>
