<svg width="26" height="26" viewBox="0 0 26 26" fill="none" xmlns="http://www.w3.org/2000/svg">
<path d="M22.7898 8.49855H20.9156V4.81036C20.9156 4.17879 20.6645 3.59013 20.2534 3.15976L19.0424 1.89257C18.0147 0.833676 17.885 0.534523 17.2729 0.237402C16.9885 0.0954688 16.6138 0 16.236 0H7.3903C6.07257 0 5.00094 1.07214 5.00094 2.38936V15.2745H4.49703C3.73684 15.2745 3.11858 15.8928 3.11858 16.6529C3.11858 17.0313 3.27173 17.3738 3.51883 17.623C3.27173 17.8721 3.11858 18.2147 3.11858 18.593C3.11858 18.7349 3.13848 18.8192 3.14564 18.8656C0.154323 19.1699 -1.03731 22.8724 1.15192 24.8819C1.81309 25.4889 2.69069 25.833 3.64233 25.7942C3.95682 25.7942 10.4315 25.7917 10.4397 25.7917C11.1994 25.7917 11.8182 25.1734 11.8182 24.4132C11.8182 24.0349 11.665 23.6923 11.4179 23.4432C11.6502 23.2089 11.7993 22.8928 11.8161 22.5416H12.3333V22.8178C12.3333 24.5725 13.7608 26 15.5155 26H22.7898C24.5446 26 25.972 24.5725 25.972 22.8178V11.6808C25.9721 9.92601 24.5446 8.49855 22.7898 8.49855ZM19.5382 3.59425C19.5382 3.59425 19.5387 3.59425 19.5392 3.59526C19.5397 3.59526 19.5397 3.59526 19.5397 3.59526C19.5402 3.59628 19.5412 3.59729 19.5417 3.5978L19.5422 3.59831C19.5433 3.59983 19.5443 3.60085 19.5453 3.60136C19.5458 3.60186 19.5463 3.60237 19.5468 3.60339C19.5473 3.60389 19.5478 3.60389 19.5478 3.6044C19.5483 3.60491 19.5488 3.60491 19.5494 3.60593C19.5504 3.60643 19.5509 3.60745 19.5514 3.60796H17.5046V1.44432C19.1088 3.13986 19.4703 3.52224 19.5382 3.59425ZM4.49703 16.0914H10.4398C10.7492 16.0914 11.0013 16.3436 11.0013 16.6529C11.0013 16.9629 10.7491 17.2145 10.4398 17.2145H4.49703C4.18762 17.2145 3.93544 16.9629 3.93544 16.6529C3.93539 16.3435 4.18762 16.0914 4.49703 16.0914ZM4.49703 18.0314H10.4398C10.7492 18.0314 11.0013 18.2836 11.0013 18.593C11.0013 18.9029 10.7491 19.1546 10.4398 19.1546H6.33496C6.16799 19.078 5.99493 19.0157 5.81775 18.9677C5.55328 18.8957 5.27962 18.8549 5.00089 18.8477C4.92075 18.8457 4.84057 18.8462 4.76044 18.8497H3.99821C3.95789 18.7727 3.93539 18.6854 3.93539 18.5929C3.93539 18.2836 4.18762 18.0314 4.49703 18.0314ZM11.0013 20.5331C11.0013 20.843 10.7491 21.0947 10.4398 21.0947H8.15405C7.99886 20.6816 7.76501 20.3013 7.46073 19.9715H10.4398C10.7491 19.9715 11.0013 20.2237 11.0013 20.5331ZM2.50996 19.8C2.26134 20.0358 2.04024 20.3161 1.86667 20.625H1.39085C1.70178 20.2395 2.08828 19.9654 2.50996 19.8ZM0.956362 21.3908H1.55116C1.53791 21.448 1.47047 21.668 1.43985 22.003H0.811381C0.835909 21.7926 0.884405 21.5874 0.956362 21.3908ZM1.02223 23.4151C0.931885 23.2099 0.867037 22.9929 0.830272 22.7688H1.45417C1.56599 23.4029 1.57208 23.2936 1.60017 23.4151H1.02223ZM1.53176 24.1809C1.78242 24.1804 1.92796 24.1819 1.96214 24.1799C2.11478 24.4209 2.29856 24.644 2.51149 24.8446C2.14134 24.6991 1.81208 24.4771 1.53176 24.1809ZM5.01673 25.029C3.52239 25.0933 2.25722 23.9359 2.1939 22.438C2.09127 20.0532 4.93959 18.6798 6.73313 20.3263C8.50124 21.9493 7.42498 24.9299 5.01673 25.029ZM10.4398 24.9748H7.14319C7.50821 24.6659 7.80792 24.2835 8.0208 23.8516H10.4398C10.7492 23.8516 11.0013 24.1039 11.0013 24.4132C11.0013 24.7231 10.7491 24.9748 10.4398 24.9748ZM10.9968 22.5416C10.9631 22.8193 10.7262 23.0348 10.4398 23.0348H8.30263C8.37667 22.6805 8.39759 22.2986 8.35214 21.9116H10.4398C10.7839 21.9116 11.0407 22.2194 10.9968 22.5416ZM12.3333 21.7247H11.5961C11.5446 21.6445 11.4848 21.5705 11.4179 21.5031C11.9514 20.965 11.9519 20.1011 11.4179 19.5631C11.665 19.3139 11.8182 18.9714 11.8182 18.593C11.8182 18.2147 11.665 17.8722 11.4179 17.623C12.2766 16.7572 11.663 15.2745 10.4397 15.2745H5.81775V2.38936C5.81775 1.52247 6.52331 0.816867 7.39024 0.816867H16.6878V4.01644C16.6878 4.24211 16.8705 4.42488 17.0962 4.42488H20.0502C20.1355 4.75571 20.0829 4.64643 20.0987 8.4985H15.5155C13.7608 8.4985 12.3333 9.92596 12.3333 11.6807V21.7247ZM25.2062 22.8178C25.2062 24.1503 24.1224 25.2342 22.7898 25.2342H15.5156C14.1836 25.2342 13.0992 24.1503 13.0992 22.8178V11.6808C13.0992 10.3483 14.1836 9.26433 15.5156 9.26433H22.7899C24.1224 9.26433 25.2063 10.3482 25.2063 11.6808V22.8178H25.2062Z" fill="#161616"/>
<path d="M22.7625 10.1327H15.5424C14.8324 10.1327 14.2568 10.7082 14.2568 11.4182V12.8197C14.2568 13.5297 14.8324 14.1052 15.5424 14.1052H16.9315C17.143 14.1052 17.3144 13.9338 17.3144 13.7223C17.3144 13.5109 17.143 13.3394 16.9315 13.3394H15.5424C15.2565 13.3394 15.0226 13.1055 15.0226 12.8197V11.4182C15.0226 11.1324 15.2565 10.8985 15.5424 10.8985H22.7625C23.0494 10.8985 23.2822 11.1318 23.2822 11.4182V12.8197C23.2822 13.1061 23.0494 13.3394 22.7625 13.3394H18.5827C18.3712 13.3394 18.1998 13.5109 18.1998 13.7223C18.1998 13.9338 18.3712 14.1052 18.5827 14.1052H22.7625C23.4717 14.1052 24.048 13.5283 24.048 12.8197V11.4182C24.048 10.7096 23.4716 10.1327 22.7625 10.1327Z" fill="#161616"/>
<path d="M16.3669 18.2014H15.0584C14.6167 18.2014 14.2568 18.5608 14.2568 19.0029V20.311C14.2568 20.7531 14.6168 21.1125 15.0584 21.1125H16.3669C16.8091 21.1125 17.1684 20.7531 17.1684 20.311V19.0029C17.1684 18.5608 16.809 18.2014 16.3669 18.2014ZM16.4026 20.311C16.4026 20.3309 16.3862 20.3467 16.3669 20.3467H15.0583C15.0389 20.3467 15.0226 20.3309 15.0226 20.311V19.0029C15.0226 18.983 15.0389 18.9672 15.0583 18.9672H16.3669C16.3862 18.9672 16.4026 18.983 16.4026 19.0029V20.311Z" fill="#161616"/>
<path d="M23.2878 14.7806H21.9798C21.5376 14.7806 21.1782 15.1401 21.1782 15.5822V16.8902C21.1782 17.3323 21.5377 17.6917 21.9798 17.6917H23.2878C23.7299 17.6917 24.0893 17.3323 24.0893 16.8902V15.5822C24.0893 15.1401 23.7299 14.7806 23.2878 14.7806ZM23.3235 16.8902C23.3235 16.9101 23.3077 16.9259 23.2878 16.9259H21.9798C21.9604 16.9259 21.944 16.9101 21.944 16.8902C21.9598 15.596 21.9108 15.5464 21.9798 15.5464H23.2878C23.3077 15.5464 23.3235 15.5623 23.3235 15.5822V16.8902Z" fill="#161616"/>
<path d="M16.3669 14.7806H15.0584C14.6167 14.7806 14.2568 15.1401 14.2568 15.5822V16.8902C14.2568 17.3323 14.6168 17.6917 15.0584 17.6917H16.3669C16.8091 17.6917 17.1684 17.3323 17.1684 16.8902V15.5822C17.1684 15.1401 16.809 14.7806 16.3669 14.7806ZM16.4026 16.8902C16.4026 16.9101 16.3862 16.9259 16.3669 16.9259H15.0583C15.0389 16.9259 15.0226 16.9101 15.0226 16.8902V15.5822C15.0226 15.5623 15.0389 15.5464 15.0583 15.5464H16.3669C16.3862 15.5464 16.4026 15.5623 16.4026 15.5822V16.8902Z" fill="#161616"/>
<path d="M16.9672 21.7246C16.8201 21.5592 16.6057 21.4546 16.3673 21.4546H15.0588C14.8203 21.4546 14.6059 21.5592 14.4594 21.7246C14.1812 22.0366 14.2756 22.3766 14.2572 22.5415V23.5641C14.2572 24.0063 14.6172 24.3657 15.0588 24.3657H16.3673C16.8094 24.3657 17.1688 24.0062 17.1688 23.5641V22.5415C17.1504 22.3802 17.2439 22.0366 16.9672 21.7246ZM16.3673 23.5999C15.0746 23.5841 15.023 23.6331 15.023 23.5641C15.023 22.179 15.0077 22.2204 15.0588 22.2204H16.3673C16.4301 22.2204 16.3913 22.3077 16.403 22.5415C16.403 22.5416 16.4362 23.5999 16.3673 23.5999Z" fill="#161616"/>
<path d="M23.0846 18.2014H22.183C21.6291 18.2014 21.1782 18.6523 21.1782 19.2062V23.2686C21.1782 23.8736 21.6704 24.3658 22.2749 24.3658H22.9927C23.5977 24.3658 24.0894 23.8736 24.0894 23.2686V19.2062C24.0894 18.6523 23.6391 18.2014 23.0846 18.2014ZM22.9927 23.5999H22.2749C22.0926 23.5999 21.9441 23.4513 21.9441 23.2686V19.2062C21.9441 19.0744 22.0513 18.9672 22.183 18.9672H23.0846C23.2163 18.9672 23.3235 19.0744 23.3235 19.2062V23.2686C23.3236 23.4513 23.1755 23.5999 22.9927 23.5999Z" fill="#161616"/>
<path d="M9.88416 11.1224C9.41728 10.9509 9.07999 10.827 9.07999 10.3944C9.07999 10.0002 9.34182 9.80033 9.85811 9.80033C10.4062 9.80033 10.5538 10.0416 10.7468 10.0416C10.957 10.0416 11.0732 9.81861 11.0732 9.66439C11.0732 9.34538 10.5528 9.18719 10.0877 9.14545V8.85783C10.0877 8.65775 9.92494 8.495 9.72486 8.495C9.52478 8.495 9.36203 8.65775 9.36203 8.85783V9.19131C8.72599 9.34233 8.37652 9.78164 8.37652 10.4326C8.37652 11.3238 9.03261 11.5703 9.55992 11.7685C10.0762 11.9625 10.484 12.1157 10.484 12.7052C10.484 13.192 10.2137 13.4389 9.68043 13.4389C8.90002 13.4389 8.89271 12.9119 8.59503 12.9119C8.41069 12.9119 8.26221 13.1183 8.26221 13.2892C8.26221 13.5909 8.71157 13.9875 9.36203 14.0904V14.3684C9.36203 14.5684 9.52478 14.7312 9.72486 14.7312C9.92494 14.7312 10.0877 14.5684 10.0877 14.3684V14.083C10.7874 13.9513 11.1875 13.4375 11.1875 12.667C11.1875 11.6013 10.4648 11.3358 9.88416 11.1224Z" fill="#161616"/>
<path d="M20.3631 21.6792C20.2191 21.5404 20.0231 21.4546 19.8076 21.4546H18.4991C18.2607 21.4546 18.0462 21.5592 17.8992 21.7246C17.622 22.0371 17.7159 22.3766 17.6976 22.5415V23.5641C17.6976 24.0063 18.057 24.3657 18.4991 24.3657H19.8076C20.2493 24.3657 20.6086 24.0062 20.6086 23.5641V22.2556C20.6086 22.0295 20.5142 21.8247 20.3631 21.6792ZM19.8076 23.5999C18.5149 23.5841 18.4633 23.6331 18.4633 23.5641V22.2556C18.4633 22.2362 18.4797 22.2204 18.4991 22.2204H19.8076C19.827 22.2204 19.8429 22.2362 19.8429 22.2556C19.8275 23.5514 19.8755 23.5999 19.8076 23.5999Z" fill="#161616"/>
<path d="M19.8068 14.7806H18.4983C18.0562 14.7806 17.6968 15.1401 17.6968 15.5822V16.8902C17.6968 17.3323 18.0562 17.6917 18.4983 17.6917H19.8068C19.91 17.6917 20.008 17.6723 20.0984 17.6366C20.3965 17.5197 20.6079 17.2292 20.6079 16.8901V15.5821C20.6079 15.1385 20.2464 14.7806 19.8068 14.7806ZM19.8068 16.9259H18.4983C18.4789 16.9259 18.4626 16.9101 18.4626 16.8902V15.5822C18.4626 15.5133 18.51 15.5618 19.8068 15.5464C19.8262 15.5464 19.8421 15.5623 19.8421 15.5822V16.8902C19.8421 16.9101 19.8262 16.9259 19.8068 16.9259Z" fill="#161616"/>
<path d="M20.0984 18.2566C20.008 18.2208 19.91 18.2014 19.8068 18.2014H18.4983C18.0562 18.2014 17.6968 18.5608 17.6968 19.0029V20.311C17.6968 20.7531 18.0562 21.1125 18.4983 21.1125H19.8068C20.2485 21.1125 20.6079 20.7531 20.6079 20.311V19.0029C20.6079 18.664 20.3965 18.3735 20.0984 18.2566ZM19.8421 20.311C19.8421 20.3309 19.8262 20.3467 19.8068 20.3467H18.4983C18.4789 20.3467 18.4626 20.3309 18.4626 20.311V19.0029C18.4626 18.983 18.4789 18.9672 18.4983 18.9672H19.8068C19.8262 18.9672 19.8421 18.983 19.8421 19.0029V20.311Z" fill="#161616"/>
<path d="M17.5967 5.23242H16.6348C16.4235 5.23242 16.252 5.40396 16.252 5.61531C16.252 5.82717 16.4235 5.9982 16.6348 5.9982H17.5967C17.808 5.9982 17.9796 5.82717 17.9796 5.61531C17.9796 5.40396 17.808 5.23242 17.5967 5.23242Z" fill="#161616"/>
<path d="M15.1038 5.23242H8.31355C8.1022 5.23242 7.93066 5.40396 7.93066 5.61531C7.93066 5.82717 8.1022 5.9982 8.31355 5.9982H15.1038C15.3152 5.9982 15.4867 5.82717 15.4867 5.61531C15.4867 5.40396 15.3152 5.23242 15.1038 5.23242Z" fill="#161616"/>
<path d="M9.53068 7.1333H8.31355C8.1022 7.1333 7.93066 7.30484 7.93066 7.51619C7.93066 7.72754 8.1022 7.89908 8.31355 7.89908H9.53068C9.74203 7.89908 9.91357 7.72754 9.91357 7.51619C9.91357 7.30484 9.74203 7.1333 9.53068 7.1333Z" fill="#161616"/>
<path d="M17.5971 7.1333H11.0621C10.8507 7.1333 10.6792 7.30484 10.6792 7.51619C10.6792 7.72754 10.8507 7.89908 11.0621 7.89908H17.5971C17.8084 7.89908 17.98 7.72754 17.98 7.51619C17.98 7.30484 17.8084 7.1333 17.5971 7.1333Z" fill="#161616"/>
<path d="M4.68344 21.5901C4.68344 21.4938 4.71889 21.4662 4.75205 21.4478C4.85493 21.3909 5.09096 21.3741 5.30719 21.4854C5.36462 21.5149 5.42972 21.5483 5.51443 21.5483C5.89209 21.5483 6.19078 20.8466 5.28865 20.6914V20.6673C5.28865 20.4534 5.11457 20.2793 4.90063 20.2793C4.68669 20.2793 4.51261 20.4534 4.51261 20.6673V20.7409C4.1346 20.8781 3.92076 21.1898 3.92076 21.613C3.92076 22.266 4.39521 22.4443 4.74174 22.5745C5.07217 22.6986 5.18643 22.753 5.18643 22.9777C5.18643 23.1182 5.1486 23.2483 4.87392 23.2483C4.47366 23.2483 4.5216 22.9319 4.22204 22.9319C4.01034 22.9319 3.85205 23.1413 3.85205 23.3285C3.85205 23.5938 4.12789 23.8456 4.51261 23.9476V23.9767C4.51261 24.1906 4.68669 24.3647 4.90063 24.3647C5.11457 24.3647 5.28865 24.1907 5.28865 23.9767V23.9375C5.70496 23.8037 5.94916 23.4452 5.94916 22.9549C5.94916 21.7913 4.68344 21.966 4.68344 21.5901Z" fill="#161616"/>
</svg>
