<svg width="18" height="18" viewBox="0 0 18 18" fill="none" xmlns="http://www.w3.org/2000/svg">
<path d="M10.1297 4.51874H7.30545C7.01422 4.51874 6.77811 4.75485 6.77811 5.04608V9.03747H6.17578C5.88455 9.03747 5.64844 9.27358 5.64844 9.56481C5.64844 9.85605 5.88455 10.0922 6.17578 10.0922H6.77811V11.2969H6.17578C5.88455 11.2969 5.64844 11.533 5.64844 11.8242C5.64844 12.1154 5.88455 12.3515 6.17578 12.3515H6.77811V13.5187C6.77811 13.81 7.01422 14.0461 7.30545 14.0461C7.59669 14.0461 7.8328 13.81 7.8328 13.5187V12.3515H10.1297C10.4209 12.3515 10.657 12.1154 10.657 11.8242C10.657 11.533 10.4209 11.2969 10.1297 11.2969H7.8328V10.0922H10.1297C11.6663 10.0922 12.9164 8.84204 12.9164 7.30543C12.9164 5.73085 11.6338 4.51874 10.1297 4.51874ZM10.1297 9.03747H7.8328V5.57342H10.1297C11.079 5.57342 11.8617 6.33913 11.8617 7.30546C11.8617 8.26052 11.0847 9.03747 10.1297 9.03747Z" fill="#161616"/>
<path d="M9 0C4.03738 0 0 4.03738 0 9C0 13.9626 4.03738 18 9 18C13.9626 18 18 13.9626 18 9C18 4.03738 13.9626 0 9 0ZM9 16.9453C4.61893 16.9453 1.05469 13.3811 1.05469 9C1.05469 4.61893 4.61893 1.05469 9 1.05469C13.3811 1.05469 16.9453 4.61893 16.9453 9C16.9453 13.3811 13.3811 16.9453 9 16.9453Z" fill="#161616"/>
</svg>
