<svg width="18" height="18" viewBox="0 0 18 18" fill="none" xmlns="http://www.w3.org/2000/svg">
<g clip-path="url(#clip0_69_793)">
<path d="M14.2258 11.1504C13.8572 10.7667 13.4128 10.5615 12.9417 10.5615C12.4744 10.5615 12.0261 10.7629 11.6424 11.1466L10.4419 12.3433C10.3432 12.2901 10.2444 12.2407 10.1494 12.1913C10.0126 12.1229 9.88347 12.0583 9.7733 11.9899C8.64879 11.2757 7.62686 10.345 6.64671 9.14067C6.17183 8.54042 5.85271 8.03515 5.62097 7.52228C5.93249 7.23736 6.22122 6.94103 6.50235 6.6561C6.60872 6.54973 6.71509 6.43956 6.82146 6.33319C7.61926 5.53539 7.61926 4.50205 6.82146 3.70426L5.78433 2.66712C5.66656 2.54935 5.54499 2.42778 5.43102 2.30621C5.20308 2.07068 4.96374 1.82754 4.71681 1.5996C4.3483 1.23489 3.90762 1.04114 3.44414 1.04114C2.98065 1.04114 2.53237 1.23489 2.15247 1.5996C2.14867 1.60339 2.14867 1.60339 2.14487 1.60719L0.853203 2.91026C0.366929 3.39654 0.0896003 3.98919 0.028816 4.67681C-0.0623605 5.78613 0.264355 6.81946 0.515091 7.49569C1.13053 9.15587 2.04989 10.6945 3.42134 12.3433C5.08531 14.3301 7.0874 15.8991 9.37441 17.0047C10.2482 17.4188 11.4145 17.9088 12.7175 17.9924C12.7973 17.9962 12.8809 18 12.9569 18C13.8345 18 14.5715 17.6847 15.1489 17.0578C15.1527 17.0503 15.1603 17.0465 15.1641 17.0389C15.3617 16.7995 15.5896 16.583 15.8289 16.3512C15.9923 16.1955 16.1595 16.0321 16.3228 15.8612C16.6989 15.4699 16.8965 15.014 16.8965 14.5467C16.8965 14.0756 16.6951 13.6235 16.3114 13.2436L14.2258 11.1504ZM15.5858 15.1507C15.582 15.1507 15.582 15.1545 15.5858 15.1507C15.4376 15.3103 15.2857 15.4547 15.1223 15.6142C14.8754 15.8498 14.6247 16.0967 14.3891 16.374C14.0054 16.7843 13.5533 16.9781 12.9607 16.9781C12.9037 16.9781 12.8429 16.9781 12.7859 16.9743C11.6576 16.9021 10.6091 16.4614 9.82269 16.0853C7.67244 15.0444 5.78433 13.5665 4.21534 11.6936C2.91987 10.1322 2.05369 8.68859 1.48004 7.13858C1.12673 6.19262 0.997566 5.45561 1.05455 4.76039C1.09254 4.3159 1.2635 3.9474 1.57882 3.63208L2.87428 2.33661C3.06043 2.16185 3.25798 2.06688 3.45173 2.06688C3.69107 2.06688 3.88482 2.21124 4.00639 2.33281C4.01019 2.33661 4.01399 2.34041 4.01779 2.34421C4.24953 2.56075 4.46987 2.78489 4.70161 3.02423C4.81938 3.1458 4.94095 3.26737 5.06252 3.39274L6.09965 4.42987C6.50235 4.83257 6.50235 5.20487 6.09965 5.60757C5.98948 5.71774 5.88311 5.82792 5.77293 5.93429C5.45382 6.261 5.1499 6.56493 4.81938 6.86125C4.81178 6.86885 4.80418 6.87265 4.80039 6.88025C4.47367 7.20696 4.53445 7.52608 4.60284 7.74263C4.60664 7.75402 4.61043 7.76542 4.61423 7.77682C4.88396 8.43025 5.26387 9.04569 5.84132 9.77891L5.84512 9.78271C6.89365 11.0744 7.99916 12.0811 9.21865 12.8523C9.37441 12.9511 9.53396 13.0309 9.68592 13.1069C9.82269 13.1752 9.95186 13.2398 10.062 13.3082C10.0772 13.3158 10.0924 13.3272 10.1076 13.3348C10.2368 13.3994 10.3584 13.4298 10.4837 13.4298C10.799 13.4298 10.9966 13.2322 11.0612 13.1676L12.3604 11.8684C12.4896 11.7392 12.6947 11.5834 12.9341 11.5834C13.1696 11.5834 13.3634 11.7316 13.4811 11.8608C13.4849 11.8646 13.4849 11.8646 13.4887 11.8684L15.582 13.9616C15.9733 14.3491 15.9733 14.748 15.5858 15.1507Z" fill="black"/>
<path d="M9.72782 4.28181C10.7232 4.44897 11.6273 4.92005 12.3491 5.64186C13.071 6.36368 13.5382 7.26784 13.7092 8.26319C13.751 8.51392 13.9675 8.68868 14.2145 8.68868C14.2449 8.68868 14.2715 8.68488 14.3018 8.68108C14.583 8.63549 14.7691 8.36956 14.7235 8.08843C14.5184 6.88414 13.9485 5.78622 13.0786 4.91625C12.2086 4.04627 11.1107 3.47642 9.90637 3.27127C9.62525 3.22568 9.36311 3.41183 9.31373 3.68916C9.26434 3.96649 9.44669 4.23622 9.72782 4.28181Z" fill="black"/>
<path d="M17.9792 7.94018C17.6411 5.95709 16.7066 4.15255 15.2705 2.71652C13.8345 1.28049 12.03 0.345932 10.0469 0.00781895C9.76955 -0.0415684 9.50742 0.148383 9.45803 0.425712C9.41245 0.706839 9.5986 0.968972 9.87973 1.01836C11.6501 1.31848 13.2646 2.15807 14.5487 3.43834C15.8328 4.72241 16.6686 6.33699 16.9687 8.10734C17.0105 8.35807 17.227 8.53283 17.474 8.53283C17.5044 8.53283 17.5309 8.52903 17.5613 8.52523C17.8387 8.48344 18.0286 8.21751 17.9792 7.94018Z" fill="black"/>
</g>
<defs>
<clipPath id="clip0_69_793">
<rect width="18" height="18" fill="white"/>
</clipPath>
</defs>
</svg>
